<?xml version="1.0" standalone="no"?><!DOCTYPE svg PUBLIC "-//W3C//DTD SVG 1.1//EN" "http://www.w3.org/Graphics/SVG/1.1/DTD/svg11.dtd"><svg t="1551179510031" class="icon" style="" viewBox="0 0 1024 1024" version="1.1" xmlns="http://www.w3.org/2000/svg" p-id="2180" xmlns:xlink="http://www.w3.org/1999/xlink" width="64" height="64"><defs><style type="text/css"></style></defs><path d="M154.742828 509.707794c0-97.940636 40.47176-188.380438 104.929818-252.337075 64.458057-64.447824 154.396439-104.428398 252.326842-104.428398 97.930403 0 187.880041 39.980573 252.326842 104.428398 64.458057 63.956637 104.929818 154.396439 104.929818 252.337075 0 196.362226-160.884201 357.25666-357.25666 357.25666C315.637262 866.964454 154.742828 706.571441 154.742828 509.707794L154.742828 509.707794zM201.712583 509.707794c0 171.382299 138.903583 310.286905 310.286905 310.286905 171.383322 0 310.287929-138.903583 310.287929-310.286905 0-171.884742-138.903583-310.798559-310.287929-310.798559C340.616166 198.909236 201.712583 337.823052 201.712583 509.707794L201.712583 509.707794zM464.037127 650.105405l0-269.313725 164.383908 137.409556L464.037127 650.105405z" p-id="2181" fill="#ffffff"></path></svg>